PathFileType	4	(X/Y/Z)	2014001\dynamic\2014001_C1_04.trc
DataRate	CameraRate	NumFrames	NumMarkers	Units	OrigDataRate	OrigDataStartFrame	OrigNumFrames
100.000000	100.000000	4	52	mm	100.000000	213	569
Frame#	Time	L_IAS			L_IPS			R_IPS			R_IAS			L_FTC			L_FLE			L_FME			L_FAX			L_TTC			L_FAL			L_TAM			L_FCC			L_FM1			L_FM2			L_FM5			R_FTC			R_FLE			R_FME			R_FAX			R_TTC			R_FAL			R_TAM			R_FCC			R_FM1			R_FM2			R_FM5			CV7			TV10			SXS			SJN			L_SIA			L_SRS			L_SAA			L_SAE			L_HLE			L_HME			L_UOA			L_RSP			L_UHE			L_HM2			L_HM5			R_SIA			R_SRS			R_SAA			R_SAE			R_HLE			R_HME			R_UOA			R_RSP			R_UHE			R_HM2			R_HM5			
		X1	Y1	Z1	X2	Y2	Z2	X3	Y3	Z3	X4	Y4	Z4	X5	Y5	Z5	X6	Y6	Z6	X7	Y7	Z7	X8	Y8	Z8	X9	Y9	Z9	X10	Y10	Z10	X11	Y11	Z11	X12	Y12	Z12	X13	Y13	Z13	X14	Y14	Z14	X15	Y15	Z15	X16	Y16	Z16	X17	Y17	Z17	X18	Y18	Z18	X19	Y19	Z19	X20	Y20	Z20	X21	Y21	Z21	X22	Y22	Z22	X23	Y23	Z23	X24	Y24	Z24	X25	Y25	Z25	X26	Y26	Z26	X27	Y27	Z27	X28	Y28	Z28	X29	Y29	Z29	X30	Y30	Z30	X31	Y31	Z31	X32	Y32	Z32	X33	Y33	Z33	X34	Y34	Z34	X35	Y35	Z35	X36	Y36	Z36	X37	Y37	Z37	X38	Y38	Z38	X39	Y39	Z39	X40	Y40	Z40	X41	Y41	Z41	X42	Y42	Z42	X43	Y43	Z43	X44	Y44	Z44	X45	Y45	Z45	X46	Y46	Z46	X47	Y47	Z47	X48	Y48	Z48	X49	Y49	Z49	X50	Y50	Z50	X51	Y51	Z51	X52	Y52	Z52	

214	2.13	419.9620361328127	857.2817993164067	406.239929199219	321.4939270019532	902.623413085938	239.8323059082032	231.7743988037111	900.8062133789067	246.7547607421876	179.621566772461	872.336059570313	434.0310363769534	463.1813964843752	777.6934204101567	316.7858276367189	407.5399475097659	431.3232727050784	251.807586669922	296.5091552734376	423.0286254882815	281.9019165039064	407.1285095214846	376.9112548828126	217.1394042968751	360.5356445312501	342.2962036132814	269.5213928222657	342.4898071289064	83.57794189453128	87.61367797851565	256.2481384277345	92.58374786376956	114.8114547729493	293.7351989746095	56.85322952270511	37.15485763549806	275.3384094238282	26.57954597473146	214.4853820800782	337.9298706054689	34.63175582885744	222.8436431884767	380.9158325195314	23.62277030944825	163.9927978515626	107.9121093750001	778.112426757813	354.1889648437501	125.010971069336	444.0324401855471	461.1851501464846	242.7762451171876	430.5388793945315	469.8296203613284	117.0217208862305	376.7373962402345	463.116638183594	172.0955047607422	386.9088439941409	523.8904418945315	145.5780487060547	67.03813934326175	529.240173339844	229.0598144531251	91.60050964355472	561.5867309570315	203.2844543457032	16.83268928527833	502.2827148437502	210.0650939941407	58.51535415649417	681.2590942382815	151.7689666748047	66.00290679931643	676.863952636719	115.5274276733399	35.70119476318361	631.897399902344	281.6276245117189	1369.203979492188	277.4845275878907	277.7740173339845	1137.264282226563	209.9697265625001	305.3273010253907	1136.928833007813	438.8042907714846	297.4869995117189	1300.41650390625	402.3183898925784	370.4132690429689	1178.378540039063	196.0839996337892	364.5614013671876	1308.641479492188	222.0445709228517	480.8508605957034	1305.013549804688	284.5263977050782	470.2992248535159	1314.171875	327.1346740722657	539.0931396484377	1029.14892578125	279.1651306152345	462.1684875488284	1000.189331054688	253.9422760009767	511.5671997070315	998.9110717773442	244.6524353027345	498.841735839844	797.3073120117192	367.2336425781251	564.372741699219	793.9734497070317	317.5216369628907	505.7383117675784	713.033142089844	391.8887939453127	565.5568847656252	716.3111572265627	308.723114013672	162.9149322509766	1180.544067382813	216.4940795898439	187.8164825439454	1304.648681640625	244.1065979003907	94.78162384033206	1296.2783203125	334.1830444335939	112.3119277954102	1299.81787109375	379.0664062500001	31.8324432373047	1001.036376953125	324.9104919433595	105.8677215576172	984.3641967773442	294.8630981445314	60.13106536865237	977.6418457031255	293.2153930664064	65.97972106933597	792.4769897460942	421.883728027344	-0.3843179345130923	791.087768554688	373.7055664062501	48.5109672546387	706.3308105468752	455.4945068359377	-3.575116872787477	711.6228027343752	366.842498779297	
215	2.14	418.1948242187502	857.8311157226567	410.2780761718752	319.9873352050782	903.3001098632817	243.8875274658204	230.1909179687501	901.4646606445317	250.7731475830079	178.034896850586	872.9634399414067	438.0495910644534	461.7670593261721	778.307250976563	320.565399169922	407.0722351074221	432.1347351074221	254.5605926513673	296.0313720703126	423.3708496093752	284.7274475097657	406.7936096191409	377.9041137695314	219.5769805908204	360.3519592285157	342.8389282226564	271.8006286621095	342.9475708007814	85.0939636230469	88.33021545410159	256.7853393554689	93.7946701049805	115.570426940918	294.2617492675782	58.80433654785159	37.69556427001955	275.5337524414064	26.63862228393556	214.4416961669923	338.0813598632814	34.56558990478517	222.971160888672	381.0458068847657	23.7085361480713	164.2298736572266	106.4874725341797	778.6873168945317	358.1746215820314	124.0891723632813	444.2451477050784	464.7628173828127	241.9424743652345	430.7551574707034	472.7966613769534	116.165641784668	376.9732055664064	466.4732666015627	171.5354919433594	386.7713623046877	527.0541992187502	145.2784423828126	66.8732604980469	530.3049316406252	228.8058624267579	91.32266235351565	562.710632324219	203.1248931884767	17.34260940551759	502.664489746094	210.3656311035157	56.69073486328128	682.1363525390627	151.9288482666016	64.06658935546878	678.0698852539065	115.637062072754	34.24304580688478	632.816101074219	279.8374633789064	1369.7890625	282.3840637207032	276.343231201172	1138.024658203125	214.5016174316407	303.5497436523439	1137.268798828125	443.2900695800784	295.6291503906251	1300.863525390625	407.1311340332034	368.9820556640626	1179.324829101563	200.8065185546876	362.9444274902345	1309.496337890625	227.0009918212892	479.1407470703127	1305.880981445313	289.700653076172	468.493591308594	1314.907348632813	332.279998779297	537.5315551757815	1030.054565429688	283.802703857422	460.6031188964846	1001.074768066407	258.5581359863282	510.0075683593752	999.864624023438	249.2380218505861	497.5251159667971	797.9609375000005	371.338104248047	563.0659179687502	794.8320922851567	321.5964355468751	504.5222473144534	713.6358032226565	395.7999267578127	564.314636230469	717.1956176757815	312.5788879394532	161.3703308105469	1181.240600585938	220.9747009277345	186.1169586181641	1305.274291992188	248.8468627929689	93.01347351074222	1296.6884765625	338.8787536621095	110.5538330078126	1300.077880859375	383.7499084472657	30.31320381164552	1001.176818847657	329.4819641113282	104.4347000122071	984.8203125000005	299.0576171875001	58.70179367065433	978.0215454101567	297.4023437500001	64.90280914306643	792.7721557617192	425.9659729003909	-1.516950726509095	791.273559570313	377.8768615722657	47.58923339843751	706.5423583984377	459.4479980468752	-4.563487052917482	711.8511352539065	370.851043701172	
216	2.15	416.4122314453127	858.4257202148442	414.359802246094	318.4386596679689	904.021118164063	247.9818267822267	228.5666656494142	902.1470336914067	254.8464660644532	176.4029846191407	873.6087036132817	442.1062927246096	460.3150024414065	778.9787597656255	324.3791809082032	406.6234436035159	432.9949035644534	257.4000244140626	295.5757141113282	423.7398071289065	287.6581115722657	406.4725341796877	378.9451904296876	222.0960540771486	360.1999511718751	343.4215698242189	274.163543701172	343.4152832031251	86.68770599365237	89.09744262695315	257.3465576171876	95.06392669677737	116.3891601562501	294.7944335937501	60.8508224487305	38.29605865478517	275.731903076172	26.69934463500978	214.4076232910157	338.2435302734376	34.49668121337892	223.0990753173829	381.177215576172	23.81694793701173	164.4876403808594	105.0313339233399	779.2533569335942	362.1995239257814	123.150619506836	444.4844055175784	468.4035339355471	241.0758209228517	430.9999084472659	475.8821105957034	115.2981796264649	377.228973388672	469.8770751953127	170.9227600097657	386.6564025878909	530.2796020507815	144.9702758789063	66.7011413574219	531.3294067382815	228.5396728515626	91.04640960693362	563.799743652344	202.9432220458986	17.83461952209473	503.0027160644534	210.617889404297	54.9521408081055	682.9348754882815	152.0446319580079	62.21651077270511	679.1877441406252	115.6558914184571	32.91372680664064	633.6516113281252	278.0561523437501	1370.41357421875	287.3220214843751	274.8932495117189	1138.813842773438	219.0794372558595	301.7442016601564	1137.665649414063	447.8284912109377	293.7540893554689	1301.36181640625	411.9856262207034	367.5844726562501	1180.300170898438	205.6136169433595	361.363494873047	1310.38671875	232.0119934082032	477.4429626464846	1306.79736328125	294.9943237304689	466.6722412109377	1315.682861328125	337.5344238281251	535.9912109375002	1031.014404296875	288.5353393554689	459.0670471191409	1002.020874023438	263.2430114746095	508.479919433594	1000.861694335938	253.9108734130861	496.1662597656252	798.6953125000005	375.5819702148439	561.726501464844	795.7475585937505	325.8511047363282	503.2135925292971	714.3323974609377	399.8912353515627	563.0192871093752	718.131042480469	316.6412963867189	159.8259582519532	1181.983642578125	225.4827117919923	184.4359283447266	1305.940307617188	253.5917053222657	91.24330902099612	1297.177734375	343.5602111816407	108.7727584838868	1300.4423828125	388.4323425292971	28.76473617553712	1001.401062011719	334.0428771972657	102.9818191528321	985.3483276367192	303.2774963378907	57.25332260131839	978.4657592773442	301.6047363281251	63.80241012573245	793.2041625976567	430.1539001464846	-2.667736530303956	791.5627441406255	382.1408081054689	46.63132858276369	706.905944824219	463.5687561035159	-5.555376529693605	712.178161621094	375.0018920898439	
217	2.16	414.6275329589846	859.0532836914067	418.4836730957034	316.8409729003907	904.7738647460942	252.1246032714845	226.8965606689454	902.8424682617192	258.9856262207032	174.7415618896485	874.2495117187505	446.215759277344	458.8289794921877	779.6994628906255	328.2217712402345	406.191101074219	433.8992614746096	260.312713623047	295.142547607422	424.1302185058596	290.685760498047	406.1601257324221	380.0300292968751	224.6839752197267	360.0781250000001	344.0405578613282	276.6009521484376	343.8860778808595	88.35575103759768	89.91707611083987	257.9217224121095	96.38301086425787	117.2693328857422	295.3191833496095	62.98385238647464	38.9590301513672	275.926971435547	26.76577949523927	214.3907318115236	338.4127807617189	34.42689895629884	223.2281951904298	381.3049621582032	23.95182418823243	164.7646789550782	103.5456161499024	779.7958374023442	366.2944946289064	122.197135925293	444.7280273437502	472.0560302734377	240.1791992187501	431.253845214844	479.0450744628909	114.4263000488282	377.4818725585939	473.279479980469	170.2581329345704	386.5483093261721	533.5263671875002	144.6661376953126	66.51801300048831	532.3072509765627	228.2709503173829	90.76364898681643	564.8492431640627	202.7495574951173	18.29921913146973	503.2860107421877	210.8231201171876	53.28968048095706	683.651794433594	152.121566772461	60.44856643676761	680.2172851562502	115.5823440551758	31.71858215332033	634.397155761719	276.2787475585939	1371.06396484375	292.2930297851564	273.410614013672	1139.617065429688	223.7012023925782	299.9118041992189	1138.10986328125	452.4181823730471	291.8626403808595	1301.899536132813	416.8742675781252	366.2031860351564	1181.281860351563	210.496551513672	359.809539794922	1311.295043945313	237.0654602050782	475.7528076171877	1307.740234375	300.386932373047	464.8332824707034	1316.479614257813	342.8805541992189	534.4753417968752	1032.007934570313	293.3582458496095	457.5679016113284	1003.005554199219	267.986785888672	506.9907531738284	1001.880432128907	258.666229248047	494.769226074219	799.4928588867192	379.9691467285157	560.360290527344	796.7011718750005	330.2919006347657	501.8184814453127	715.1082763671877	404.1699829101565	561.6797485351565	719.0977172851565	320.9236450195314	158.2736968994141	1182.754516601563	230.0194702148439	182.7680969238282	1306.636352539063	258.3298645019532	89.46772766113284	1297.731201171875	348.2254333496095	106.9656600952149	1300.896728515625	393.1081542968752	27.18552207946779	1001.706420898438	338.5650939941407	101.5021743774415	985.9331054687505	307.5186767578126	55.77889633178714	978.9589233398442	305.8202209472657	62.67571640014651	793.756469726563	434.4489440917971	-3.837915897369387	791.9406127929692	386.4912414550784	45.63457489013673	707.409362792969	467.8576660156252	-6.550944805145267	712.5869750976565	379.2942504882814	
